PathFileType	3	(X/Y/Z)	D:\minhoCalibration\240510\subject4_KPNP\preferred\preferred14.trc
DataRate	CameraRate	NumFrames	NumMarkers	Units	OrigDataRate	OrigDataStartFrame	OrigNumFrames
200.0	200.0	15	10	mm	200.0	278	91	
Frame#	Time	Left_Ankle_Outer1			Left_Ankle_Inner1			Left_Knee_Outer1			Left_Knee_Inner1			Left_Wrist1			Right_Wrist1			Right_Knee_Inner1			Right_Knee_Outer1			Right_Ankle_Inner1			Right_Ankle_Outer1			
		X1	Y1	Z1	X2	Y2	Z2	X3	Y3	Z3	X4	Y4	Z4	X5	Y5	Z5	X6	Y6	Z6	X7	Y7	Z7	X8	Y8	Z8	X9	Y9	Z9	X10	Y10	Z10	
278	1.38	-417.74197	1195.9098	262.22205	-420.42761	1091.6733	260.55661	-312.35852	1101.6791	756.12415	-342.83167	1018.6908	724.76813	-474.53918	1216.6564	1118.5375	-491.70029	913.1875	1334.0728	-372.89981	553.94482	1031.3276	-355.14215	562.62231	1141.1639	-582.71411	131.97359	1142.4886	-554.39581	138.98192	1192.3821
279	1.385	-424.50366	1189.8491	260.7308	-418.827	1085.1967	258.21744	-312.30151	1104.6556	758.15192	-339.2894	1025.2133	726.6994	-479.33875	1216.6537	1114.1176	-489.55997	913.15936	1330.3579	-373.71286	553.48822	1028.0402	-355.78339	562.53381	1137.3273	-582.52356	131.88948	1143.3315	-553.46808	139.0705	1192.6208
280	1.39	-429.10315	1182.5126	256.84607	-417.87756	1077.8866	256.87204	-315.37204	1110.2816	759.7702	-337.53098	1031.2072	727.90277	-485.16083	1216.7372	1110.3552	-487.68539	912.83093	1326.7246	-374.43835	553.12537	1024.1647	-356.65524	562.5661	1133.2238	-582.30389	131.57281	1143.89	-552.67694	139.21545	1192.8752
281	1.395	-432.55334	1174.1112	252.62779	-417.26331	1069.265	256.10983	-320.19144	1118.2288	760.58661	-336.08566	1037.2651	729.02283	-490.9917	1216.3221	1106.45	-486.10358	912.21753	1322.7059	-376.02365	552.9834	1020.3359	-357.30075	563.00867	1129.4851	-582.05634	131.63683	1144.4244	-552.00226	139.48669	1192.9922
282	1.4	-434.60254	1163.866	248.03964	-414.82068	1059.9058	254.68758	-326.41791	1127.2844	760.34198	-334.9527	1043.4154	730.68573	-496.82294	1215.984	1103.1017	-484.87442	911.41229	1318.4454	-377.82571	552.91266	1016.3925	-358.33301	563.60577	1125.6996	-581.92743	131.66986	1144.806	-551.32983	139.76933	1192.8695
283	1.405	-435.50949	1153.0273	243.92274	-411.20972	1049.8774	253.61346	-334.83862	1136.0304	758.65961	-333.48654	1049.9312	732.22443	-502.13004	1215.7273	1100.0186	-484.14819	910.48358	1314.1129	-379.95151	553.11707	1012.2757	-359.55252	564.11816	1121.4856	-581.51666	131.49582	1145.1407	-550.77924	140.17397	1192.5741
284	1.41	-436.05283	1140.9978	240.2137	-405.56323	1040.1112	249.55974	-347.01346	1143.4301	755.42645	-332.15308	1056.8134	733.28845	-507.65591	1215.8607	1097.4161	-483.70639	909.42767	1309.5455	-382.3963	553.25464	1008.2414	-360.58044	564.55237	1117.3689	-581.75049	131.72693	1145.1246	-550.48761	140.6257	1192.1212
285	1.415	-436.69336	1127.8467	237.11722	-397.34467	1030.7258	250.36502	-361.10522	1149.6477	751.1037	-331.97827	1063.4088	733.85156	-513.14209	1216.4467	1094.7017	-483.31348	908.48431	1304.9741	-384.92065	553.5802	1004.1483	-361.42117	565.0329	1113.2059	-582.05646	131.82442	1144.6924	-550.26178	141.16713	1191.3407
286	1.42	-436.6387	1113.4395	234.54616	-389.22256	1020.5679	251.30424	-376.26874	1152.514	746.19635	-333.2952	1068.9326	733.7124	-518.7392	1217.1616	1093.0405	-482.35367	907.37061	1300.5087	-387.94775	554.24609	1000.4611	-362.16211	565.14362	1108.957	-582.26508	132.08621	1144.1432	-550.11633	141.66014	1190.4382
287	1.425	-437.54849	1097.7238	232.89558	-376.87787	1013.8027	250.41064	-391.14056	1152.5227	741.50739	-335.65613	1072.5389	732.98169	-523.44434	1217.3834	1091.5896	-480.93948	905.95807	1297.0092	-391.0181	554.9267	996.89355	-362.70322	565.27478	1104.8335	-582.16376	131.98712	1143.7689	-550.03253	142.12842	1189.4489
288	1.43	-437.69208	1081.3253	231.3752	-368.66	1005.2365	250.27303	-403.3468	1150.4441	737.53571	-339.61768	1073.2244	731.77417	-528.25415	1217.7521	1090.5507	-479.20166	904.23102	1294.1332	-393.90225	555.68396	993.42853	-363.05264	565.14862	1100.88	-583.04364	132.11678	1143.061	-549.93182	142.47881	1188.6079
289	1.435	-435.60458	1065.1439	229.0453	-361.45184	995.41614	250.38615	-412.99646	1147.4722	734.37543	-344.25928	1071.8346	730.04401	-532.66077	1217.6726	1089.797	-476.95728	902.80951	1291.5791	-396.86343	555.99567	990.23212	-363.15442	564.88123	1097.2032	-583.07245	131.93178	1142.6709	-549.93823	142.72026	1187.9147
290	1.44	-433.68857	1051.6959	227.60522	-356.7088	986.45758	250.50333	-420.00476	1143.8362	731.46478	-349.40759	1069.146	727.87537	-537.11084	1217.0494	1089.1345	-474.07324	901.88757	1288.9451	-400.05826	556.43329	987.68884	-362.88257	564.71558	1094.4398	-583.39856	132.17459	1142.8733	-549.79694	142.84723	1187.5641
291	1.445	-431.52777	1038.1603	226.50446	-352.86926	976.27539	250.98679	-425.18402	1139.5649	728.55811	-354.75681	1065.6063	725.85742	-541.55286	1216.0032	1088.441	-470.90958	901.21332	1286.1808	-402.7352	556.32922	985.11676	-363.21991	564.36255	1090.6906	-583.62219	131.88684	1143.2838	-549.58148	142.8093	1187.6202
292	1.45	-430.23926	1024.4637	225.45322	-350.49445	965.04779	251.47438	-429.08029	1134.7389	725.1236	-360.07291	1061.3988	724.11322	-545.68097	1214.6921	1087.5392	-467.7139	900.75146	1283.4916	-405.22083	556.33765	983.10626	-363.13742	564.21942	1087.9969	-583.76501	131.36632	1144.0842	-549.21277	142.58502	1188.0538
